<svg width="187" height="58" viewBox="0 0 187 58" fill="none" xmlns="http://www.w3.org/2000/svg">
<path d="M7.464 24.128C6.84 24.128 6.344 24.28 5.976 24.584C5.624 24.872 5.448 25.264 5.448 25.76C5.448 26.24 5.664 26.624 6.096 26.912C6.544 27.2 7.56 27.544 9.144 27.944C10.744 28.328 11.984 28.912 12.864 29.696C13.744 30.48 14.184 31.624 14.184 33.128C14.184 34.632 13.616 35.856 12.48 36.8C11.36 37.728 9.88 38.192 8.04 38.192C5.384 38.192 2.992 37.208 0.864 35.24L3.096 32.504C4.904 34.088 6.576 34.88 8.112 34.88C8.8 34.88 9.336 34.736 9.72 34.448C10.12 34.144 10.32 33.744 10.32 33.248C10.32 32.736 10.112 32.336 9.696 32.048C9.28 31.744 8.456 31.44 7.224 31.136C5.272 30.672 3.84 30.072 2.928 29.336C2.032 28.584 1.584 27.416 1.584 25.832C1.584 24.232 2.152 23 3.288 22.136C4.44 21.272 5.872 20.84 7.584 20.84C8.704 20.84 9.824 21.032 10.944 21.416C12.064 21.8 13.04 22.344 13.872 23.048L11.976 25.784C10.52 24.68 9.016 24.128 7.464 24.128ZM24.6207 24.872C26.1247 24.872 27.4607 25.504 28.6287 26.768C29.8127 28.016 30.4047 29.592 30.4047 31.496C30.4047 33.4 29.8127 34.992 28.6287 36.272C27.4607 37.552 26.0847 38.192 24.5007 38.192C22.9327 38.192 21.6687 37.56 20.7087 36.296V42.656H17.1087V25.088H20.7087V26.528C21.8127 25.424 23.1167 24.872 24.6207 24.872ZM20.6607 31.568C20.6607 32.608 20.9487 33.464 21.5247 34.136C22.1167 34.792 22.8287 35.12 23.6607 35.12C24.4927 35.12 25.2207 34.792 25.8447 34.136C26.4687 33.464 26.7807 32.608 26.7807 31.568C26.7807 30.528 26.4767 29.656 25.8687 28.952C25.2607 28.248 24.5327 27.896 23.6847 27.896C22.8367 27.896 22.1167 28.248 21.5247 28.952C20.9487 29.64 20.6607 30.512 20.6607 31.568ZM39.9851 28.256C38.9131 28.256 38.1131 28.64 37.5851 29.408C37.0571 30.16 36.7931 31.16 36.7931 32.408V38H33.1931V25.088H36.7931V26.792C37.2571 26.264 37.8331 25.816 38.5211 25.448C39.2251 25.08 39.9371 24.888 40.6571 24.872L40.6811 28.256H39.9851ZM46.7602 38H43.1602V25.088H46.7602V38ZM43.4482 23.456C43.0482 23.04 42.8482 22.536 42.8482 21.944C42.8482 21.352 43.0482 20.856 43.4482 20.456C43.8642 20.04 44.3682 19.832 44.9602 19.832C45.5522 19.832 46.0482 20.04 46.4482 20.456C46.8642 20.856 47.0722 21.352 47.0722 21.944C47.0722 22.536 46.8642 23.04 46.4482 23.456C46.0482 23.856 45.5522 24.056 44.9602 24.056C44.3682 24.056 43.8642 23.856 43.4482 23.456ZM53.7481 38L48.6361 25.064H52.3801L55.5961 33.2L58.8121 25.064H62.5561L57.4441 38H53.7481ZM75.2345 38H71.8505V36.44C70.9225 37.608 69.7705 38.192 68.3945 38.192C67.0345 38.192 65.8905 37.8 64.9625 37.016C64.0345 36.216 63.5705 35.16 63.5705 33.848C63.5705 32.52 64.0505 31.528 65.0105 30.872C65.9705 30.216 67.2825 29.888 68.9465 29.888H71.6345V29.816C71.6345 28.44 70.9065 27.752 69.4505 27.752C68.8265 27.752 68.1625 27.88 67.4585 28.136C66.7705 28.376 66.1865 28.68 65.7065 29.048L64.0985 26.72C65.7945 25.488 67.7305 24.872 69.9065 24.872C71.4745 24.872 72.7545 25.264 73.7465 26.048C74.7385 26.832 75.2345 28.072 75.2345 29.768V38ZM71.6105 33.08V32.456H69.3545C67.9145 32.456 67.1945 32.904 67.1945 33.8C67.1945 34.264 67.3625 34.624 67.6985 34.88C68.0505 35.12 68.5465 35.24 69.1865 35.24C69.8265 35.24 70.3865 35.048 70.8665 34.664C71.3625 34.264 71.6105 33.736 71.6105 33.08ZM82.7719 27.68V33.464C82.7719 33.96 82.8999 34.352 83.1559 34.64C83.4119 34.912 83.7159 35.048 84.0679 35.048C84.7399 35.048 85.3079 34.744 85.7719 34.136L87.1159 36.656C85.9959 37.68 84.8119 38.192 83.5639 38.192C82.3319 38.192 81.2839 37.784 80.4199 36.968C79.5719 36.152 79.1479 35.04 79.1479 33.632V27.68H77.6359V25.088H79.1479V21.224H82.7719V25.088H85.8919V27.68H82.7719ZM100.33 36.128C98.8742 37.504 97.1622 38.192 95.1942 38.192C93.2422 38.192 91.6262 37.592 90.3462 36.392C89.0662 35.176 88.4262 33.552 88.4262 31.52C88.4262 29.488 89.0742 27.872 90.3702 26.672C91.6822 25.472 93.2262 24.872 95.0022 24.872C96.7782 24.872 98.2822 25.408 99.5142 26.48C100.762 27.552 101.386 29.024 101.386 30.896V32.816H91.9782C92.0902 33.52 92.4582 34.096 93.0822 34.544C93.7062 34.992 94.4102 35.216 95.1942 35.216C96.4582 35.216 97.4982 34.792 98.3142 33.944L100.33 36.128ZM97.7382 30.248C97.6582 29.48 97.3702 28.888 96.8742 28.472C96.3782 28.056 95.7702 27.848 95.0502 27.848C94.3462 27.848 93.6982 28.064 93.1062 28.496C92.5142 28.928 92.1702 29.512 92.0742 30.248H97.7382ZM107.682 30.8V38H104.082V25.088H107.682V26.528C108.77 25.424 109.994 24.872 111.354 24.872C112.714 24.872 113.85 25.352 114.762 26.312C115.69 27.272 116.154 28.552 116.154 30.152V38H112.554V30.704C112.554 28.72 111.826 27.728 110.37 27.728C109.65 27.728 109.018 27.992 108.474 28.52C107.946 29.032 107.682 29.792 107.682 30.8Z" fill="white"/>
</svg>
